<svg height="480pt" viewBox="0 0 480 480" width="480pt" xmlns="http://www.w3.org/2000/svg"><path style="fill:#57D131;" d="m440 0h-400c-22.082031.0273438-39.9726562 17.917969-40 40v192c.0234375 19 13.386719 35.371094 32 39.199219v24.800781c0 4.417969 3.582031 8 8 8h48c4.417969 0 8-3.582031 8-8v-24h192v60c.03125 24.289062 19.710938 43.96875 44 44h104c15.464844 0 28 12.535156 28 28s-12.535156 28-28 28h-60v-8c0-4.417969-3.582031-8-8-8h-168c-4.417969 0-8-3.582031-8-8s3.582031-8 8-8h16c13.253906 0 24-10.746094 24-24s-10.746094-24-24-24h-72v-16h8c.539062 0 1.074219-.054688 1.601562-.160156l40-8-3.203124-15.679688-39.199219 7.839844h-47.199219c-1.285156 0-2.554688.308594-3.695312.902344l-32 16.664062c-2.6875 1.402344-4.351563 4.199219-4.300782 7.226563.046875 3.027343 1.804688 5.765625 4.53125 7.078125l32 15.335937c1.082032.523438 2.265625.792969 3.464844.792969h112c4.417969 0 8 3.582031 8 8s-3.582031 8-8 8h-16c-13.253906 0-24 10.746094-24 24 .027344 2.730469.523438 5.4375 1.472656 8h-17.472656v-16h-16v16h-16v-16h-16v16h-48c-1.152344 0-2.289062.25-3.335938.726562l-32 14.664063c-.332031.179687-.652343.382813-.953124.609375h-27.710938v16h32v-.238281l28.183594 15.269531c1.171875.636719 2.484375.96875 3.816406.96875h48v16h16v-16h16v16h16v-16h208c4.417969 0 8-3.582031 8-8v-8h60c24.300781 0 44-19.699219 44-44s-19.699219-44-44-44h-104c-15.464844 0-28-12.535156-28-28v-60h80v24c0 4.417969 3.582031 8 8 8h48c4.417969 0 8-3.582031 8-8v-24.800781c18.613281-3.828125 31.976562-20.199219 32-39.199219v-192c-.027344-22.082031-17.917969-39.9726562-40-40zm-312 352h-22.175781l-15.9375-7.632812 16.074219-8.367188h22.039062zm-61.96875 96-16.136719-8.734375 15.847657-7.265625h46.257812v16zm61.96875 0v-16h16v16zm232 0h-200v-16h200zm-280-160h-32v-16h32zm352 0h-32v-16h32zm32-56c0 13.253906-10.746094 24-24 24h-136v-10.222656c6.273438-3.621094 9.328125-11.003906 7.453125-18-1.871094-6.992188-8.210937-11.859375-15.453125-11.859375s-13.582031 4.867187-15.453125 11.859375c-1.875 6.996094 1.179687 14.378906 7.453125 18v10.222656h-248c-13.253906 0-24-10.746094-24-24v-192c0-13.253906 10.746094-24 24-24h400c13.253906 0 24 10.746094 24 24zm0 0"/><path style="fill:#57D131;" d="m240 32h-192c-8.835938 0-16 7.164062-16 16v144c0 8.835938 7.164062 16 16 16h192c8.835938 0 16-7.164062 16-16v-144c0-8.835938-7.164062-16-16-16zm-192 160v-144h192v144zm0 0"/><path style="fill:#57D131;" d="m424 96c-13.253906 0-24 10.746094-24 24s10.746094 24 24 24 24-10.746094 24-24-10.746094-24-24-24zm0 32c-4.417969 0-8-3.582031-8-8s3.582031-8 8-8 8 3.582031 8 8-3.582031 8-8 8zm0 0"/><path style="fill:#57D131;" d="m360 96c-13.253906 0-24 10.746094-24 24s10.746094 24 24 24 24-10.746094 24-24-10.746094-24-24-24zm0 32c-4.417969 0-8-3.582031-8-8s3.582031-8 8-8 8 3.582031 8 8-3.582031 8-8 8zm0 0"/><path style="fill:#57D131;" d="m296 96c-13.253906 0-24 10.746094-24 24s10.746094 24 24 24 24-10.746094 24-24-10.746094-24-24-24zm0 32c-4.417969 0-8-3.582031-8-8s3.582031-8 8-8 8 3.582031 8 8-3.582031 8-8 8zm0 0"/><path style="fill:#57D131;" d="m424 160c-13.253906 0-24 10.746094-24 24s10.746094 24 24 24 24-10.746094 24-24-10.746094-24-24-24zm0 32c-4.417969 0-8-3.582031-8-8s3.582031-8 8-8 8 3.582031 8 8-3.582031 8-8 8zm0 0"/><path style="fill:#57D131;" d="m360 160c-13.253906 0-24 10.746094-24 24s10.746094 24 24 24 24-10.746094 24-24-10.746094-24-24-24zm0 32c-4.417969 0-8-3.582031-8-8s3.582031-8 8-8 8 3.582031 8 8-3.582031 8-8 8zm0 0"/><path style="fill:#57D131;" d="m296 160c-13.253906 0-24 10.746094-24 24s10.746094 24 24 24 24-10.746094 24-24-10.746094-24-24-24zm0 32c-4.417969 0-8-3.582031-8-8s3.582031-8 8-8 8 3.582031 8 8-3.582031 8-8 8zm0 0"/><path style="fill:#57D131;" d="m32 224h32v16h-32zm0 0"/><path style="fill:#57D131;" d="m80 224h32v16h-32zm0 0"/><path style="fill:#57D131;" d="m128 224h32v16h-32zm0 0"/><path style="fill:#57D131;" d="m176 224h32v16h-32zm0 0"/><path style="fill:#57D131;" d="m224 224h32v16h-32zm0 0"/><path style="fill:#57D131;" d="m352 224h16v16h-16zm0 0"/><path style="fill:#57D131;" d="m416 224h16v16h-16zm0 0"/><path style="fill:#57D131;" d="m280 64h32v16h-32zm0 0"/><path style="fill:#57D131;" d="m344 64h32v16h-32zm0 0"/><path style="fill:#57D131;" d="m408 64h32v16h-32zm0 0"/><path style="fill:#57D131;" d="m280 32h32v16h-32zm0 0"/><path style="fill:#57D131;" d="m344 32h32v16h-32zm0 0"/><path style="fill:#57D131;" d="m408 32h32v16h-32zm0 0"/><path style="fill:#57D131;" d="m140.265625 76.648438c-3.835937-12.464844-15.457031-20.882813-28.496094-20.644532-13.035156.238282-24.339843 9.078125-27.714843 21.675782l-9.191407 34.320312h-10.863281v16h75.320312l8.414063 27.351562c3.738281 12.304688 15.105469 20.699219 27.960937 20.648438h.992188c12.59375.011719 23.777344-8.046875 27.746094-20l9.328125-28h10.238281v-16h-72.855469zm-48.839844 35.351562 8.078125-30.175781c1.523438-5.710938 6.644532-9.71875 12.554688-9.828125 5.90625-.109375 11.175781 3.707031 12.910156 9.355468l9.429688 30.648438zm105.476563 16-7.65625 22.9375c-1.789063 5.414062-6.851563 9.070312-12.558594 9.0625h-.992188c-5.824218.023438-10.972656-3.78125-12.664062-9.351562l-6.96875-22.648438zm0 0"/></svg>