<svg xmlns="http://www.w3.org/2000/svg" width="245" height="224.36" viewBox="0 0 247 224.36">
 <g>
  <path d="m245.15 23.498s-60.798-22.629-121.74-22.629c-60.937 0-121.88 22.629-121.88 22.629s-16.99 116.25 121.88 199.73c138.65-83.49 121.74-199.73 121.74-199.73z" fill="#ffe2a4"/>
  <path d="m123.41 0.86892c61.021 0 121.82 22.629 121.82 22.629s16.83 116.25-121.82 199.73z" fill="#ffcb4f"/>
  <path d="m123.41 200.48v-182.21c-47.259 0-104.16 17.952-104.16 17.952s-3.4119 99.437 104.16 164.26zm104.16-164.26s-56.959-17.952-104.16-17.952v182.21c107.42-64.822 104.16-164.26 104.16-164.26z" fill="#498076"/>
  <path d="m123.41 18.269c47.28 0 104.28 17.952 104.28 17.952s3.1443 99.437-104.28 164.26z" fill="#115e56"/>
  <path d="m144.93 73.574-7.7375 17.358 7.7375 17.094c26.735-18.991 31.575-38.58 31.575-38.58l-15.298-17.379h42.951c0 29.595-19.238 64.311-65.353 101.44l-15.399-39.594-15.583 39.598c-46.071-37.127-65.353-71.844-65.353-101.44h43.072l-15.235 17.379s4.7599 19.585 31.492 38.58l7.741-17.094-7.741-17.358h43.135z" fill="#fff"/>
 </g>
</svg>